<svg xmlns="http://www.w3.org/2000/svg" viewBox="0 0 900 400" width="900" height="400" role="img" aria-label="Hammer the Thor tigress beside a GPU module marked sm_110 with a lightning bolt"><g transform="translate(40,26) rotate(0.0) scale(0.8)"><path d="M130,200 C92,200 62,218 50,252 C42,284 42,326 46,372 L100,354 C92,314 100,262 130,224 Z" fill="#F7FAFF" stroke="#F7FAFF" stroke-width="10" stroke-linejoin="round"/><path d="M 130 200 C 168 200 198 218 210 252 C 218 284 218 326 214 372 L 160 354 C 168 314 160 262 130 224 Z" fill="#F7FAFF" stroke="#F7FAFF" stroke-width="10" stroke-linejoin="round"/><path d="M130,212 C106,218 86,234 76,258 C70,286 70,322 72,356 L100,344 C92,310 98,266 130,228 Z" fill="#F7FAFF" /><path d="M 130 212 C 154 218 174 234 184 258 C 190 286 190 322 188 356 L 160 344 C 168 310 162 266 130 228 Z" fill="#F7FAFF" /><path d="M86,320 C52,314 26,296 26,272 C26,256 36,248 48,252" fill="none" stroke="#F7FAFF" stroke-width="10" stroke-linecap="round"/><path d="M86,320 C52,314 26,296 26,272 C26,256 36,248 48,252" fill="none" stroke="#F7FAFF" stroke-width="10" stroke-linecap="round"/><path d="M86,320 C52,314 26,296 26,272 C26,256 36,248 48,252" fill="none" stroke="#F7FAFF" stroke-width="10" /><path d="M112,312 L112,392" fill="none" stroke="#F7FAFF" stroke-width="10" stroke-linecap="round"/><path d="M112,312 L112,392" fill="none" stroke="#F7FAFF" stroke-width="10" stroke-linecap="round"/><path d="M148,312 L148,392" fill="none" stroke="#F7FAFF" stroke-width="10" stroke-linecap="round"/><path d="M148,312 L148,392" fill="none" stroke="#F7FAFF" stroke-width="10" stroke-linecap="round"/><ellipse cx="112" cy="398" rx="19" ry="12" fill="#F7FAFF" stroke="#F7FAFF" stroke-width="10" stroke-linejoin="round"/><ellipse cx="148" cy="398" rx="19" ry="12" fill="#F7FAFF" stroke="#F7FAFF" stroke-width="10" stroke-linejoin="round"/><path d="M116,178 L144,178 L140,206 L120,206 Z" fill="#F7FAFF" stroke="#F7FAFF" stroke-width="10" stroke-linejoin="round"/><path d="M92,196 C84,214 84,236 88,262 C90,286 94,306 102,318 C116,330 144,330 158,318 C166,306 170,286 172,262 C176,236 176,214 168,196 C152,186 108,186 92,196 Z" fill="#F7FAFF" stroke="#F7FAFF" stroke-width="10" stroke-linejoin="round"/><path d="M104,218 C118,212 142,212 156,218 C162,244 162,278 156,300 C140,310 120,310 104,300 C98,278 98,244 104,218 Z" fill="#F7FAFF" stroke="#F7FAFF" stroke-width="10" stroke-linejoin="round"/><path d="M110,228 C122,222 138,222 150,228 C154,250 154,276 150,294 C138,302 122,302 110,294 C106,276 106,250 110,228 Z" fill="#F7FAFF"/><path d="M130,242 L139,253 L130,264 L121,253 Z" fill="#F7FAFF" stroke="#F7FAFF" stroke-width="10" stroke-linejoin="round"/><path d="M114,284 C122,279 138,279 146,284" fill="none" stroke="#F7FAFF" stroke-width="10" stroke-linecap="round"/><rect x="94" y="308" width="72" height="13" rx="6" fill="#F7FAFF" stroke="#F7FAFF" stroke-width="10"/><path d="M98,204 C82,220 70,248 70,278" fill="none" stroke="#F7FAFF" stroke-width="10" stroke-linecap="round"/><path d="M98,204 C82,220 70,248 70,278" fill="none" stroke="#F7FAFF" stroke-width="10" stroke-linecap="round"/><path d="M162,204 C186,206 204,220 206,240" fill="none" stroke="#F7FAFF" stroke-width="10" stroke-linecap="round"/><path d="M162,204 C186,206 204,220 206,240" fill="none" stroke="#F7FAFF" stroke-width="10" stroke-linecap="round"/><ellipse cx="95" cy="204" rx="17" ry="15" fill="#F7FAFF" stroke="#F7FAFF" stroke-width="10" stroke-linejoin="round"/><ellipse cx="165" cy="204" rx="17" ry="15" fill="#F7FAFF" stroke="#F7FAFF" stroke-width="10" stroke-linejoin="round"/><g transform="translate(30,0) rotate(0.0) scale(1.0)"><path d="M54,62 C46,42 50,22 68,16 C82,18 90,32 92,50 C80,53 66,58 54,62 Z" fill="#F7FAFF" stroke="#F7FAFF" stroke-width="10" stroke-linejoin="round"/><path d="M 146 62 C 154 42 150 22 132 16 C 118 18 110 32 108 50 C 120 53 134 58 146 62 Z" fill="#F7FAFF" stroke="#F7FAFF" stroke-width="10" stroke-linejoin="round"/><path d="M60,56 C55,42 57,29 69,25 C77,27 82,37 84,48 C76,51 67,54 60,56 Z" fill="#F7FAFF" /><path d="M 140 56 C 145 42 143 29 131 25 C 123 27 118 37 116 48 C 124 51 133 54 140 56 Z" fill="#F7FAFF" /><path d="M100,36 C136,36 164,58 168,92 C170,108 176,118 184,126 C175,130 169,136 167,146 C159,166 133,182 100,182 C67,182 41,166 33,146 C31,136 25,130 16,126 C24,118 30,108 32,92 C36,58 64,36 100,36 Z" fill="#F7FAFF" stroke="#F7FAFF" stroke-width="10" stroke-linejoin="round"/><path d="M40,72 C34,94 34,120 42,144 C46,156 52,164 58,170" fill="none" stroke="#F7FAFF" stroke-width="10" stroke-linecap="round" /><path d="M 160 72 C 166 94 166 120 158 144 C 154 156 148 164 142 170" fill="none" stroke="#F7FAFF" stroke-width="10" stroke-linecap="round" /><path d="M40,72 C34,94 34,120 42,144 C46,156 52,164 58,170" fill="none" stroke="#F7FAFF" stroke-width="10" stroke-linecap="round" /><path d="M 160 72 C 166 94 166 120 158 144 C 154 156 148 164 142 170" fill="none" stroke="#F7FAFF" stroke-width="10" stroke-linecap="round" /><path d="M46,64 C26,58 10,38 4,10 C18,20 30,32 40,48 C38,30 44,14 56,4 C58,22 56,42 50,54 C54,50 58,48 62,48 C54,56 50,62 46,64 Z" fill="#F7FAFF" stroke="#F7FAFF" stroke-width="10" stroke-linejoin="round"/><path d="M 154 64 C 174 58 190 38 196 10 C 182 20 170 32 160 48 C 162 30 156 14 144 4 C 142 22 144 42 150 54 C 146 50 142 48 138 48 C 146 56 150 62 154 64 Z" fill="#F7FAFF" stroke="#F7FAFF" stroke-width="10" stroke-linejoin="round"/><path d="M100,20 C122,20 142,34 152,56 C134,49 116,45 100,45 C84,45 66,49 48,56 C58,34 78,20 100,20 Z" fill="#F7FAFF" stroke="#F7FAFF" stroke-width="10" stroke-linejoin="round"/><path d="M64,38 C80,29 120,29 136,38" fill="none" stroke="#F7FAFF" stroke-width="10" stroke-linecap="round"/><path d="M48,58 C68,51 132,51 152,58 L148,70 C130,62 70,62 52,70 Z" fill="#F7FAFF" stroke="#F7FAFF" stroke-width="10" stroke-linejoin="round"/><path d="M100,-2 C105,6 105,14 100,20 C95,14 95,6 100,-2 Z" fill="#F7FAFF" stroke="#F7FAFF" stroke-width="10" stroke-linejoin="round"/><path d="M100,55 L107,62 L100,69 L93,62 Z" fill="#F7FAFF" stroke="#F7FAFF" stroke-width="10" stroke-linejoin="round"/><path d="M100,108 C88,108 70,116 64,130 C60,144 72,160 100,164 C128,160 140,144 136,130 C130,116 112,108 100,108 Z" fill="#F7FAFF"/><path d="M46,86 C54,88 59,93 62,100 C55,98 49,93 46,86 Z" fill="#F7FAFF" /><path d="M 154 86 C 146 88 141 93 138 100 C 145 98 151 93 154 86 Z" fill="#F7FAFF" /><path d="M34,104 C42,106 48,110 52,117 C44,115 37,110 34,104 Z" fill="#F7FAFF" /><path d="M 166 104 C 158 106 152 110 148 117 C 156 115 163 110 166 104 Z" fill="#F7FAFF" /><path d="M36,122 C44,124 50,128 54,135 C46,133 39,128 36,122 Z" fill="#F7FAFF" /><path d="M 164 122 C 156 124 150 128 146 135 C 154 133 161 128 164 122 Z" fill="#F7FAFF" /><path d="M48,140 C54,142 58,146 61,152 C55,150 50,146 48,140 Z" fill="#F7FAFF" /><path d="M 152 140 C 146 142 142 146 139 152 C 145 150 150 146 152 140 Z" fill="#F7FAFF" /><path d="M29,92 L41,88" fill="none" stroke="#F7FAFF" stroke-width="10" stroke-linecap="round" /><path d="M 171 92 L 159 88" fill="none" stroke="#F7FAFF" stroke-width="10" stroke-linecap="round" /><path d="M28,108 L40,104" fill="none" stroke="#F7FAFF" stroke-width="10" stroke-linecap="round" /><path d="M 172 108 L 160 104" fill="none" stroke="#F7FAFF" stroke-width="10" stroke-linecap="round" /><path d="M32,124 L44,120" fill="none" stroke="#F7FAFF" stroke-width="10" stroke-linecap="round" /><path d="M 168 124 L 156 120" fill="none" stroke="#F7FAFF" stroke-width="10" stroke-linecap="round" /><path d="M39,140 L51,136" fill="none" stroke="#F7FAFF" stroke-width="10" stroke-linecap="round" /><path d="M 161 140 L 149 136" fill="none" stroke="#F7FAFF" stroke-width="10" stroke-linecap="round" /><path d="M46,156 L58,152" fill="none" stroke="#F7FAFF" stroke-width="10" stroke-linecap="round" /><path d="M 154 156 L 142 152" fill="none" stroke="#F7FAFF" stroke-width="10" stroke-linecap="round" /><circle cx="58" cy="170" r="3" fill="#F7FAFF" stroke="#F7FAFF" stroke-width="10"/><circle cx="142" cy="170" r="3" fill="#F7FAFF" stroke="#F7FAFF" stroke-width="10"/><path d="M100,72 L95,83 L100,83 L96,93 L105,80 L100,80 L103,72 Z" fill="#F7FAFF"/><path d="M62,94 C69,84 81,84 88,94 C81,102 69,102 62,94 Z" fill="#F7FAFF" stroke="#F7FAFF" stroke-width="10"/><path d="M 138 94 C 131 84 119 84 112 94 C 119 102 131 102 138 94 Z" fill="#F7FAFF" stroke="#F7FAFF" stroke-width="10"/><ellipse cx="74" cy="93" rx="2.6" ry="6" fill="#F7FAFF"/><ellipse cx="126" cy="93" rx="2.6" ry="6" fill="#F7FAFF"/><circle cx="67" cy="90" r="2" fill="#F7FAFF"/><circle cx="133" cy="90" r="2" fill="#F7FAFF"/><path d="M60,94 L52,89" fill="none" stroke="#F7FAFF" stroke-width="10" stroke-linecap="round" /><path d="M 140 94 L 148 89" fill="none" stroke="#F7FAFF" stroke-width="10" stroke-linecap="round" /><path d="M89,116 L111,116 C111,122 105,128 100,130 C95,128 89,122 89,116 Z" fill="#F7FAFF" stroke="#F7FAFF" stroke-width="10"/><path d="M100,130 L100,138 M100,138 C96,145 88,145 83,140 M100,138 C104,145 112,145 117,140" fill="none" stroke="#F7FAFF" stroke-width="10" stroke-linecap="round"/><path d="M68,122 C56,118 44,118 30,114" fill="none" stroke="#F7FAFF" stroke-width="10" stroke-linecap="round" /><path d="M 132 122 C 144 118 156 118 170 114" fill="none" stroke="#F7FAFF" stroke-width="10" stroke-linecap="round" /><path d="M70,134 C58,133 46,136 32,140" fill="none" stroke="#F7FAFF" stroke-width="10" stroke-linecap="round" /><path d="M 130 134 C 142 133 154 136 168 140" fill="none" stroke="#F7FAFF" stroke-width="10" stroke-linecap="round" /><circle cx="80" cy="126" r="1.6" fill="#F7FAFF"/><circle cx="120" cy="126" r="1.6" fill="#F7FAFF"/><circle cx="86" cy="131" r="1.6" fill="#F7FAFF"/><circle cx="114" cy="131" r="1.6" fill="#F7FAFF"/><circle cx="79" cy="134" r="1.6" fill="#F7FAFF"/><circle cx="121" cy="134" r="1.6" fill="#F7FAFF"/></g><g transform="translate(206,208) rotate(0.0) scale(0.64)"><rect x="-7" y="0" width="14" height="94" rx="6" fill="#F7FAFF" stroke="#F7FAFF" stroke-width="10"/><rect x="-9" y="62" width="18" height="12" rx="3" fill="#F7FAFF" stroke="#F7FAFF" stroke-width="10"/><rect x="-40" y="-28" width="80" height="40" rx="6" fill="#F7FAFF" stroke="#F7FAFF" stroke-width="10"/><rect x="-40" y="-28" width="80" height="12" rx="5" fill="#F7FAFF"/><rect x="-40" y="4" width="80" height="8" rx="3" fill="#F7FAFF"/><path d="M-9,-8 L1,-8 L-4,2 L4,2 L-9,17 L-4,5 L-11,5 Z" fill="#F7FAFF" stroke="#F7FAFF" stroke-width="10"/></g><ellipse cx="70" cy="280" rx="14" ry="13" fill="#F7FAFF" stroke="#F7FAFF" stroke-width="10" stroke-linejoin="round"/><ellipse cx="206" cy="242" rx="14" ry="13" fill="#F7FAFF" stroke="#F7FAFF" stroke-width="10" stroke-linejoin="round"/><path d="M130,200 C92,200 62,218 50,252 C42,284 42,326 46,372 L100,354 C92,314 100,262 130,224 Z" fill="#3D5480" stroke="#141C28" stroke-width="3" stroke-linejoin="round"/><path d="M 130 200 C 168 200 198 218 210 252 C 218 284 218 326 214 372 L 160 354 C 168 314 160 262 130 224 Z" fill="#3D5480" stroke="#141C28" stroke-width="3" stroke-linejoin="round"/><path d="M130,212 C106,218 86,234 76,258 C70,286 70,322 72,356 L100,344 C92,310 98,266 130,228 Z" fill="#2A3B5C" /><path d="M 130 212 C 154 218 174 234 184 258 C 190 286 190 322 188 356 L 160 344 C 168 310 162 266 130 228 Z" fill="#2A3B5C" /><path d="M86,320 C52,314 26,296 26,272 C26,256 36,248 48,252" fill="none" stroke="#141C28" stroke-width="17" stroke-linecap="round"/><path d="M86,320 C52,314 26,296 26,272 C26,256 36,248 48,252" fill="none" stroke="#9AA9C4" stroke-width="12" stroke-linecap="round"/><path d="M86,320 C52,314 26,296 26,272 C26,256 36,248 48,252" fill="none" stroke="#37476A" stroke-width="12" stroke-dasharray="4 10"/><path d="M112,312 L112,392" fill="none" stroke="#141C28" stroke-width="30" stroke-linecap="round"/><path d="M112,312 L112,392" fill="none" stroke="#9AA9C4" stroke-width="24" stroke-linecap="round"/><path d="M148,312 L148,392" fill="none" stroke="#141C28" stroke-width="30" stroke-linecap="round"/><path d="M148,312 L148,392" fill="none" stroke="#9AA9C4" stroke-width="24" stroke-linecap="round"/><ellipse cx="112" cy="398" rx="19" ry="12" fill="#9AA9C4" stroke="#141C28" stroke-width="3" stroke-linejoin="round"/><ellipse cx="148" cy="398" rx="19" ry="12" fill="#9AA9C4" stroke="#141C28" stroke-width="3" stroke-linejoin="round"/><path d="M116,178 L144,178 L140,206 L120,206 Z" fill="#9AA9C4" stroke="#141C28" stroke-width="3" stroke-linejoin="round"/><path d="M92,196 C84,214 84,236 88,262 C90,286 94,306 102,318 C116,330 144,330 158,318 C166,306 170,286 172,262 C176,236 176,214 168,196 C152,186 108,186 92,196 Z" fill="#9AA9C4" stroke="#141C28" stroke-width="3" stroke-linejoin="round"/><path d="M104,218 C118,212 142,212 156,218 C162,244 162,278 156,300 C140,310 120,310 104,300 C98,278 98,244 104,218 Z" fill="#D9E1EC" stroke="#141C28" stroke-width="3" stroke-linejoin="round"/><path d="M110,228 C122,222 138,222 150,228 C154,250 154,276 150,294 C138,302 122,302 110,294 C106,276 106,250 110,228 Z" fill="#8A98AE"/><path d="M130,242 L139,253 L130,264 L121,253 Z" fill="#6FD8F5" stroke="#141C28" stroke-width="2" stroke-linejoin="round"/><path d="M114,284 C122,279 138,279 146,284" fill="none" stroke="#D9E1EC" stroke-width="3" stroke-linecap="round"/><rect x="94" y="308" width="72" height="13" rx="6" fill="#2A3B5C" stroke="#141C28" stroke-width="2"/><path d="M98,204 C82,220 70,248 70,278" fill="none" stroke="#141C28" stroke-width="26" stroke-linecap="round"/><path d="M98,204 C82,220 70,248 70,278" fill="none" stroke="#9AA9C4" stroke-width="20" stroke-linecap="round"/><path d="M162,204 C186,206 204,220 206,240" fill="none" stroke="#141C28" stroke-width="26" stroke-linecap="round"/><path d="M162,204 C186,206 204,220 206,240" fill="none" stroke="#9AA9C4" stroke-width="20" stroke-linecap="round"/><ellipse cx="95" cy="204" rx="17" ry="15" fill="#D9E1EC" stroke="#141C28" stroke-width="3" stroke-linejoin="round"/><ellipse cx="165" cy="204" rx="17" ry="15" fill="#D9E1EC" stroke="#141C28" stroke-width="3" stroke-linejoin="round"/><g transform="translate(30,0) rotate(0.0) scale(1.0)"><path d="M54,62 C46,42 50,22 68,16 C82,18 90,32 92,50 C80,53 66,58 54,62 Z" fill="#9AA9C4" stroke="#141C28" stroke-width="3" stroke-linejoin="round"/><path d="M 146 62 C 154 42 150 22 132 16 C 118 18 110 32 108 50 C 120 53 134 58 146 62 Z" fill="#9AA9C4" stroke="#141C28" stroke-width="3" stroke-linejoin="round"/><path d="M60,56 C55,42 57,29 69,25 C77,27 82,37 84,48 C76,51 67,54 60,56 Z" fill="#37476A" /><path d="M 140 56 C 145 42 143 29 131 25 C 123 27 118 37 116 48 C 124 51 133 54 140 56 Z" fill="#37476A" /><path d="M100,36 C136,36 164,58 168,92 C170,108 176,118 184,126 C175,130 169,136 167,146 C159,166 133,182 100,182 C67,182 41,166 33,146 C31,136 25,130 16,126 C24,118 30,108 32,92 C36,58 64,36 100,36 Z" fill="#9AA9C4" stroke="#141C28" stroke-width="3" stroke-linejoin="round"/><path d="M40,72 C34,94 34,120 42,144 C46,156 52,164 58,170" fill="none" stroke="#4A5A7A" stroke-width="12" stroke-linecap="round" /><path d="M 160 72 C 166 94 166 120 158 144 C 154 156 148 164 142 170" fill="none" stroke="#4A5A7A" stroke-width="12" stroke-linecap="round" /><path d="M40,72 C34,94 34,120 42,144 C46,156 52,164 58,170" fill="none" stroke="#E2E9F5" stroke-width="7" stroke-linecap="round" /><path d="M 160 72 C 166 94 166 120 158 144 C 154 156 148 164 142 170" fill="none" stroke="#E2E9F5" stroke-width="7" stroke-linecap="round" /><path d="M46,64 C26,58 10,38 4,10 C18,20 30,32 40,48 C38,30 44,14 56,4 C58,22 56,42 50,54 C54,50 58,48 62,48 C54,56 50,62 46,64 Z" fill="#D9E1EC" stroke="#141C28" stroke-width="3" stroke-linejoin="round"/><path d="M 154 64 C 174 58 190 38 196 10 C 182 20 170 32 160 48 C 162 30 156 14 144 4 C 142 22 144 42 150 54 C 146 50 142 48 138 48 C 146 56 150 62 154 64 Z" fill="#D9E1EC" stroke="#141C28" stroke-width="3" stroke-linejoin="round"/><path d="M100,20 C122,20 142,34 152,56 C134,49 116,45 100,45 C84,45 66,49 48,56 C58,34 78,20 100,20 Z" fill="#D9E1EC" stroke="#141C28" stroke-width="3" stroke-linejoin="round"/><path d="M64,38 C80,29 120,29 136,38" fill="none" stroke="#F2F6FB" stroke-width="4" stroke-linecap="round"/><path d="M48,58 C68,51 132,51 152,58 L148,70 C130,62 70,62 52,70 Z" fill="#8A98AE" stroke="#141C28" stroke-width="2" stroke-linejoin="round"/><path d="M100,-2 C105,6 105,14 100,20 C95,14 95,6 100,-2 Z" fill="#3D5480" stroke="#141C28" stroke-width="2" stroke-linejoin="round"/><path d="M100,55 L107,62 L100,69 L93,62 Z" fill="#6FD8F5" stroke="#141C28" stroke-width="2" stroke-linejoin="round"/><path d="M100,108 C88,108 70,116 64,130 C60,144 72,160 100,164 C128,160 140,144 136,130 C130,116 112,108 100,108 Z" fill="#F1F5FC"/><path d="M46,86 C54,88 59,93 62,100 C55,98 49,93 46,86 Z" fill="#37476A" /><path d="M 154 86 C 146 88 141 93 138 100 C 145 98 151 93 154 86 Z" fill="#37476A" /><path d="M34,104 C42,106 48,110 52,117 C44,115 37,110 34,104 Z" fill="#37476A" /><path d="M 166 104 C 158 106 152 110 148 117 C 156 115 163 110 166 104 Z" fill="#37476A" /><path d="M36,122 C44,124 50,128 54,135 C46,133 39,128 36,122 Z" fill="#37476A" /><path d="M 164 122 C 156 124 150 128 146 135 C 154 133 161 128 164 122 Z" fill="#37476A" /><path d="M48,140 C54,142 58,146 61,152 C55,150 50,146 48,140 Z" fill="#37476A" /><path d="M 152 140 C 146 142 142 146 139 152 C 145 150 150 146 152 140 Z" fill="#37476A" /><path d="M29,92 L41,88" fill="none" stroke="#4A5A7A" stroke-width="3" stroke-linecap="round" /><path d="M 171 92 L 159 88" fill="none" stroke="#4A5A7A" stroke-width="3" stroke-linecap="round" /><path d="M28,108 L40,104" fill="none" stroke="#4A5A7A" stroke-width="3" stroke-linecap="round" /><path d="M 172 108 L 160 104" fill="none" stroke="#4A5A7A" stroke-width="3" stroke-linecap="round" /><path d="M32,124 L44,120" fill="none" stroke="#4A5A7A" stroke-width="3" stroke-linecap="round" /><path d="M 168 124 L 156 120" fill="none" stroke="#4A5A7A" stroke-width="3" stroke-linecap="round" /><path d="M39,140 L51,136" fill="none" stroke="#4A5A7A" stroke-width="3" stroke-linecap="round" /><path d="M 161 140 L 149 136" fill="none" stroke="#4A5A7A" stroke-width="3" stroke-linecap="round" /><path d="M46,156 L58,152" fill="none" stroke="#4A5A7A" stroke-width="3" stroke-linecap="round" /><path d="M 154 156 L 142 152" fill="none" stroke="#4A5A7A" stroke-width="3" stroke-linecap="round" /><circle cx="58" cy="170" r="3" fill="#D9E1EC" stroke="#141C28" stroke-width="2"/><circle cx="142" cy="170" r="3" fill="#D9E1EC" stroke="#141C28" stroke-width="2"/><path d="M100,72 L95,83 L100,83 L96,93 L105,80 L100,80 L103,72 Z" fill="#6FD8F5"/><path d="M62,94 C69,84 81,84 88,94 C81,102 69,102 62,94 Z" fill="#F0C46A" stroke="#141C28" stroke-width="2.5"/><path d="M 138 94 C 131 84 119 84 112 94 C 119 102 131 102 138 94 Z" fill="#F0C46A" stroke="#141C28" stroke-width="2.5"/><ellipse cx="74" cy="93" rx="2.6" ry="6" fill="#141C28"/><ellipse cx="126" cy="93" rx="2.6" ry="6" fill="#141C28"/><circle cx="67" cy="90" r="2" fill="#FFFFFF"/><circle cx="133" cy="90" r="2" fill="#FFFFFF"/><path d="M60,94 L52,89" fill="none" stroke="#141C28" stroke-width="2.5" stroke-linecap="round" /><path d="M 140 94 L 148 89" fill="none" stroke="#141C28" stroke-width="2.5" stroke-linecap="round" /><path d="M89,116 L111,116 C111,122 105,128 100,130 C95,128 89,122 89,116 Z" fill="#C79AA0" stroke="#141C28" stroke-width="2"/><path d="M100,130 L100,138 M100,138 C96,145 88,145 83,140 M100,138 C104,145 112,145 117,140" fill="none" stroke="#141C28" stroke-width="2.4" stroke-linecap="round"/><path d="M68,122 C56,118 44,118 30,114" fill="none" stroke="#D9E1EC" stroke-width="1.6" stroke-linecap="round" /><path d="M 132 122 C 144 118 156 118 170 114" fill="none" stroke="#D9E1EC" stroke-width="1.6" stroke-linecap="round" /><path d="M70,134 C58,133 46,136 32,140" fill="none" stroke="#D9E1EC" stroke-width="1.6" stroke-linecap="round" /><path d="M 130 134 C 142 133 154 136 168 140" fill="none" stroke="#D9E1EC" stroke-width="1.6" stroke-linecap="round" /><circle cx="80" cy="126" r="1.6" fill="#141C28"/><circle cx="120" cy="126" r="1.6" fill="#141C28"/><circle cx="86" cy="131" r="1.6" fill="#141C28"/><circle cx="114" cy="131" r="1.6" fill="#141C28"/><circle cx="79" cy="134" r="1.6" fill="#141C28"/><circle cx="121" cy="134" r="1.6" fill="#141C28"/></g><g transform="translate(206,208) rotate(0.0) scale(0.64)"><rect x="-7" y="0" width="14" height="94" rx="6" fill="#7A5A3C" stroke="#141C28" stroke-width="2.5"/><rect x="-9" y="62" width="18" height="12" rx="3" fill="#6A7A94" stroke="#141C28" stroke-width="2"/><rect x="-40" y="-28" width="80" height="40" rx="6" fill="#D9E1EC" stroke="#141C28" stroke-width="3"/><rect x="-40" y="-28" width="80" height="12" rx="5" fill="#F2F6FB"/><rect x="-40" y="4" width="80" height="8" rx="3" fill="#8A98AE"/><path d="M-9,-8 L1,-8 L-4,2 L4,2 L-9,17 L-4,5 L-11,5 Z" fill="#6FD8F5" stroke="#3AA6CC" stroke-width="1.2"/></g><ellipse cx="70" cy="280" rx="14" ry="13" fill="#9AA9C4" stroke="#141C28" stroke-width="3" stroke-linejoin="round"/><ellipse cx="206" cy="242" rx="14" ry="13" fill="#9AA9C4" stroke="#141C28" stroke-width="3" stroke-linejoin="round"/></g><g transform="translate(560,140) rotate(0.0) scale(1.5)"><rect x="14" y="-8" width="6" height="8" fill="#F7FAFF"/><rect x="14" y="100" width="6" height="8" fill="#F7FAFF"/><rect x="30" y="-8" width="6" height="8" fill="#F7FAFF"/><rect x="30" y="100" width="6" height="8" fill="#F7FAFF"/><rect x="46" y="-8" width="6" height="8" fill="#F7FAFF"/><rect x="46" y="100" width="6" height="8" fill="#F7FAFF"/><rect x="62" y="-8" width="6" height="8" fill="#F7FAFF"/><rect x="62" y="100" width="6" height="8" fill="#F7FAFF"/><rect x="78" y="-8" width="6" height="8" fill="#F7FAFF"/><rect x="78" y="100" width="6" height="8" fill="#F7FAFF"/><rect x="94" y="-8" width="6" height="8" fill="#F7FAFF"/><rect x="94" y="100" width="6" height="8" fill="#F7FAFF"/><rect x="110" y="-8" width="6" height="8" fill="#F7FAFF"/><rect x="110" y="100" width="6" height="8" fill="#F7FAFF"/><rect x="126" y="-8" width="6" height="8" fill="#F7FAFF"/><rect x="126" y="100" width="6" height="8" fill="#F7FAFF"/><rect x="0" y="0" width="150" height="100" rx="10" fill="#F7FAFF" stroke="#F7FAFF" stroke-width="10"/><rect x="20" y="18" width="110" height="64" rx="6" fill="#F7FAFF"/><text x="75" y="56" font-family="Menlo, monospace" font-size="15" text-anchor="middle" fill="#F7FAFF">sm_110</text><g transform="translate(118,-34)"><g transform="scale(0.6)" ><path d="M14,0 L-16,46 L2,46 L-12,92 L30,32 L10,32 L26,0 Z" fill="#F7FAFF" stroke="#F7FAFF" stroke-width="10" stroke-linejoin="round"/></g></g></g><g transform="translate(560,140) rotate(0.0) scale(1.5)"><rect x="14" y="-8" width="6" height="8" fill="#8A98AE"/><rect x="14" y="100" width="6" height="8" fill="#8A98AE"/><rect x="30" y="-8" width="6" height="8" fill="#8A98AE"/><rect x="30" y="100" width="6" height="8" fill="#8A98AE"/><rect x="46" y="-8" width="6" height="8" fill="#8A98AE"/><rect x="46" y="100" width="6" height="8" fill="#8A98AE"/><rect x="62" y="-8" width="6" height="8" fill="#8A98AE"/><rect x="62" y="100" width="6" height="8" fill="#8A98AE"/><rect x="78" y="-8" width="6" height="8" fill="#8A98AE"/><rect x="78" y="100" width="6" height="8" fill="#8A98AE"/><rect x="94" y="-8" width="6" height="8" fill="#8A98AE"/><rect x="94" y="100" width="6" height="8" fill="#8A98AE"/><rect x="110" y="-8" width="6" height="8" fill="#8A98AE"/><rect x="110" y="100" width="6" height="8" fill="#8A98AE"/><rect x="126" y="-8" width="6" height="8" fill="#8A98AE"/><rect x="126" y="100" width="6" height="8" fill="#8A98AE"/><rect x="0" y="0" width="150" height="100" rx="10" fill="#2C3A4B" stroke="#141C28" stroke-width="3"/><rect x="20" y="18" width="110" height="64" rx="6" fill="#1E2A38"/><text x="75" y="56" font-family="Menlo, monospace" font-size="15" text-anchor="middle" fill="#D9E1EC">sm_110</text><g transform="translate(118,-34)"><g transform="scale(0.6)" opacity="1.00"><path d="M14,0 L-16,46 L2,46 L-12,92 L30,32 L10,32 L26,0 Z" fill="#6FD8F5" stroke="#3AA6CC" stroke-width="3" stroke-linejoin="round"/></g></g></g></svg>
